<svg xmlns="http://www.w3.org/2000/svg" viewBox="0 0 1200 630" width="1200" height="630">
  <defs>
    <linearGradient id="bg" x1="0" y1="0" x2="1" y2="1">
      <stop offset="0%" stop-color="#0C3250"/>
      <stop offset="100%" stop-color="#114466"/>
    </linearGradient>
    <pattern id="dots" x="0" y="0" width="32" height="32" patternUnits="userSpaceOnUse">
      <circle cx="16" cy="16" r="1.2" fill="rgba(255,153,0,0.12)"/>
    </pattern>
  </defs>
  <!-- Background -->
  <rect width="1200" height="630" fill="url(#bg)"/>
  <rect width="1200" height="630" fill="url(#dots)"/>
  <!-- Orange accent bar -->
  <rect x="0" y="0" width="1200" height="4" fill="#FF9900"/>
  <!-- Left decorative line -->
  <rect x="80" y="160" width="3" height="310" rx="1.5" fill="#FF9900" opacity="0.6"/>
  <!-- Content -->
  <text x="120" y="220" font-family="system-ui, -apple-system, sans-serif" font-size="18" font-weight="500" letter-spacing="4" fill="#FF9900" text-transform="uppercase">TECOTEC GROUP</text>
  <text x="120" y="295" font-family="system-ui, -apple-system, sans-serif" font-size="72" font-weight="800" fill="#FFFFFF" letter-spacing="-1">TECOTEC</text>
  <text x="120" y="365" font-family="system-ui, -apple-system, sans-serif" font-size="52" font-weight="300" fill="rgba(255,255,255,0.85)" letter-spacing="1">Quang Điện Tử</text>
  <text x="120" y="420" font-family="system-ui, -apple-system, sans-serif" font-size="20" font-weight="400" fill="rgba(255,255,255,0.5)" letter-spacing="2">Optronics Equipment &amp; Solutions</text>
  <!-- Badge -->
  <rect x="120" y="460" width="180" height="36" rx="4" fill="#FF9900"/>
  <text x="210" y="484" font-family="system-ui, -apple-system, sans-serif" font-size="15" font-weight="700" fill="#114466" text-anchor="middle" letter-spacing="1">Brand Playbook</text>
  <rect x="316" y="460" width="64" height="36" rx="4" fill="rgba(255,255,255,0.12)"/>
  <text x="348" y="484" font-family="system-ui, -apple-system, sans-serif" font-size="15" font-weight="600" fill="rgba(255,255,255,0.7)" text-anchor="middle">v1.0</text>
  <!-- Right decorative dots cluster -->
  <g opacity="0.15">
    <circle cx="900" cy="200" r="4" fill="#FF9900"/>
    <circle cx="940" cy="185" r="3" fill="#FF9900"/>
    <circle cx="920" cy="230" r="5" fill="#FF9900"/>
    <circle cx="970" cy="210" r="3.5" fill="#FF9900"/>
    <circle cx="1000" cy="190" r="2.5" fill="#FF9900"/>
    <circle cx="980" cy="250" r="4" fill="#FF9900"/>
    <circle cx="1030" cy="230" r="3" fill="#FF9900"/>
    <circle cx="1060" cy="200" r="4.5" fill="#FF9900"/>
    <circle cx="1050" cy="260" r="2" fill="#FF9900"/>
    <circle cx="910" cy="280" r="3" fill="#FF9900"/>
    <circle cx="950" cy="300" r="4" fill="#FF9900"/>
    <circle cx="1000" cy="280" r="2.5" fill="#FF9900"/>
    <circle cx="1080" cy="240" r="3" fill="#FF9900"/>
    <circle cx="1100" cy="210" r="2" fill="#FF9900"/>
  </g>
  <!-- Bottom info -->
  <text x="120" y="578" font-family="system-ui, -apple-system, sans-serif" font-size="13" fill="rgba(255,255,255,0.35)" letter-spacing="1">tecotec-oes.com · Tháng 4/2026</text>
</svg>
