<?xml version="1.0" encoding="UTF-8"?><svg id="Layer_1" xmlns="http://www.w3.org/2000/svg" viewBox="0 0 93.33 133.56"><defs><style>.cls-1{fill:#231f20;}.cls-2{fill:#f7931e;}</style></defs><path class="cls-2" d="M39.72,2.48c0,1.37-1.11,2.48-2.48,2.48s-2.48-1.11-2.48-2.48,1.11-2.48,2.48-2.48,2.48,1.11,2.48,2.48"/><path class="cls-2" d="M17.05,19.45c0,1.28-1.04,2.31-2.31,2.31s-2.32-1.04-2.32-2.31,1.04-2.32,2.32-2.32,2.31,1.04,2.31,2.32"/><path class="cls-2" d="M23.51,16.07c0,1.28-1.04,2.31-2.32,2.31s-2.32-1.04-2.32-2.31,1.04-2.32,2.32-2.32,2.32,1.03,2.32,2.32"/><path class="cls-2" d="M29.96,12.69c0,1.28-1.04,2.32-2.32,2.32s-2.32-1.04-2.32-2.32,1.04-2.31,2.32-2.31,2.32,1.04,2.32,2.31"/><path class="cls-2" d="M36.96,9.64c0,1.19-.96,2.15-2.15,2.15s-2.15-.96-2.15-2.15.96-2.15,2.15-2.15,2.15.96,2.15,2.15"/><path class="cls-2" d="M34.88,15.73c0,1-.81,1.82-1.82,1.82s-1.82-.81-1.82-1.82.81-1.82,1.82-1.82,1.82.81,1.82,1.82"/><path class="cls-2" d="M33.19,21.52c0,.82-.66,1.49-1.49,1.49s-1.49-.67-1.49-1.49.67-1.49,1.49-1.49,1.49.67,1.49,1.49"/><path class="cls-2" d="M32.26,26.05c0,.64-.52,1.16-1.16,1.16s-1.16-.52-1.16-1.16.52-1.16,1.16-1.16,1.16.52,1.16,1.16"/><path class="cls-2" d="M31.54,30.27c0,.45-.37.83-.83.83s-.83-.37-.83-.83.37-.83.83-.83.83.37.83.83"/><path class="cls-2" d="M17.05,26.03c0,1.19-.96,2.15-2.15,2.15s-2.15-.96-2.15-2.15.96-2.15,2.15-2.15,2.15.96,2.15,2.15"/><path class="cls-2" d="M22.76,22.08c0,1.19-.96,2.15-2.15,2.15s-2.15-.96-2.15-2.15.96-2.15,2.15-2.15,2.15.96,2.15,2.15"/><path class="cls-2" d="M22.5,27.37c0,1.1-.89,1.98-1.98,1.98s-1.98-.89-1.98-1.98.88-1.98,1.98-1.98,1.98.89,1.98,1.98"/><path class="cls-2" d="M28.16,23.93c0,1.1-.89,1.98-1.98,1.98s-1.99-.89-1.99-1.98.89-1.98,1.99-1.98,1.98.89,1.98,1.98"/><path class="cls-2" d="M22.97,32.03c0,1-.81,1.82-1.82,1.82s-1.82-.81-1.82-1.82.81-1.82,1.82-1.82,1.82.81,1.82,1.82"/><path class="cls-2" d="M27.68,28.78c0,1.01-.81,1.82-1.82,1.82s-1.82-.81-1.82-1.82.81-1.82,1.82-1.82,1.82.81,1.82,1.82"/><path class="cls-2" d="M24,36.42c0,.91-.74,1.65-1.65,1.65s-1.65-.74-1.65-1.65.74-1.65,1.65-1.65,1.65.74,1.65,1.65"/><path class="cls-2" d="M27.78,32.99c0,.91-.74,1.65-1.65,1.65s-1.65-.74-1.65-1.65.74-1.65,1.65-1.65,1.65.74,1.65,1.65"/><path class="cls-2" d="M26.06,40.07c0,.82-.67,1.49-1.49,1.49s-1.49-.67-1.49-1.49.66-1.49,1.49-1.49,1.49.67,1.49,1.49"/><path class="cls-2" d="M28.79,36.54c0,.82-.67,1.49-1.49,1.49s-1.49-.66-1.49-1.49.67-1.49,1.49-1.49,1.49.66,1.49,1.49"/><path class="cls-2" d="M28.45,42.88c0,.73-.59,1.32-1.32,1.32s-1.32-.59-1.32-1.32.59-1.32,1.32-1.32,1.32.59,1.32,1.32"/><path class="cls-2" d="M30.25,39.52c0,.73-.59,1.32-1.32,1.32s-1.32-.59-1.32-1.32.59-1.32,1.32-1.32,1.32.59,1.32,1.32"/><path class="cls-2" d="M30.55,45.32c0,.64-.52,1.16-1.16,1.16s-1.16-.52-1.16-1.16.52-1.16,1.16-1.16,1.16.52,1.16,1.16"/><path class="cls-2" d="M31.82,42.18c0,.64-.52,1.16-1.16,1.16s-1.16-.52-1.16-1.16.52-1.16,1.16-1.16,1.16.52,1.16,1.16"/><path class="cls-2" d="M32.51,47.35c0,.55-.44.99-.99.99s-.99-.44-.99-.99.44-.99.99-.99.99.44.99.99"/><path class="cls-2" d="M33.37,44.36c0,.55-.44.99-.99.99s-.99-.44-.99-.99.44-.99.99-.99.99.44.99.99"/><path class="cls-2" d="M34.35,49.03c0,.46-.37.83-.83.83s-.83-.37-.83-.83.37-.83.83-.83.83.37.83.83"/><path class="cls-2" d="M34.85,46.19c0,.46-.37.83-.83.83s-.83-.37-.83-.83.37-.83.83-.83.83.37.83.83"/><path class="cls-2" d="M35.98,50.43c0,.37-.29.66-.66.66s-.66-.3-.66-.66.3-.66.66-.66.66.3.66.66"/><path class="cls-2" d="M36.31,47.63c0,.36-.29.66-.66.66s-.66-.29-.66-.66.29-.66.66-.66.66.3.66.66"/><path class="cls-2" d="M28.73,18.66c0,1.19-.96,2.15-2.15,2.15s-2.15-.96-2.15-2.15.96-2.15,2.15-2.15,2.15.96,2.15,2.15"/><path class="cls-2" d="M17.25,31.75c0,1.1-.89,1.98-1.98,1.98s-1.98-.89-1.98-1.98.89-1.99,1.98-1.99,1.98.89,1.98,1.99"/><path class="cls-2" d="M17.95,36.86c0,1.01-.81,1.82-1.82,1.82s-1.82-.81-1.82-1.82.81-1.82,1.82-1.82,1.82.81,1.82,1.82"/><path class="cls-2" d="M19.25,41.52c0,.92-.74,1.65-1.65,1.65s-1.65-.74-1.65-1.65.74-1.65,1.65-1.65,1.65.74,1.65,1.65"/><path class="cls-2" d="M21.55,45.36c0,.82-.67,1.49-1.49,1.49s-1.49-.67-1.49-1.49.66-1.49,1.49-1.49,1.49.66,1.49,1.49"/><path class="cls-2" d="M24.24,48.5c0,.73-.59,1.32-1.32,1.32s-1.32-.59-1.32-1.32.59-1.32,1.32-1.32,1.32.59,1.32,1.32"/><path class="cls-2" d="M25.07,44.13c0,.73-.59,1.32-1.32,1.32s-1.32-.59-1.32-1.32.59-1.32,1.32-1.32,1.32.59,1.32,1.32"/><path class="cls-2" d="M27.12,50.84c0,.64-.52,1.16-1.16,1.16s-1.16-.52-1.16-1.16.52-1.16,1.16-1.16,1.16.52,1.16,1.16"/><path class="cls-2" d="M27.56,46.91c0,.64-.52,1.16-1.16,1.16s-1.16-.52-1.16-1.16.52-1.16,1.16-1.16,1.16.52,1.16,1.16"/><path class="cls-2" d="M29.75,52.59c0,.55-.44.99-.99.99s-.99-.44-.99-.99.44-.99.99-.99.99.44.99.99"/><path class="cls-2" d="M29.87,49.09c0,.55-.44.99-.99.99s-.99-.44-.99-.99.44-.99.99-.99.99.44.99.99"/><path class="cls-2" d="M32.12,54.3c0,.46-.37.83-.83.83s-.83-.37-.83-.83.37-.83.83-.83.83.37.83.83"/><path class="cls-2" d="M31.97,50.92c0,.46-.37.83-.82.83s-.83-.37-.83-.83.37-.83.83-.83.82.37.82.83"/><path class="cls-2" d="M34.17,55.62c0,.37-.3.66-.66.66s-.66-.29-.66-.66.3-.66.66-.66.66.29.66.66"/><path class="cls-2" d="M34.06,52.35c0,.36-.29.66-.66.66s-.66-.3-.66-.66.3-.66.66-.66.66.29.66.66"/><path class="cls-2" d="M32.13,5.71c0,1.37-1.11,2.48-2.48,2.48s-2.48-1.11-2.48-2.48,1.11-2.48,2.48-2.48,2.48,1.11,2.48,2.48"/><path class="cls-2" d="M24.54,8.95c0,1.37-1.11,2.48-2.48,2.48s-2.48-1.11-2.48-2.48,1.11-2.48,2.48-2.48,2.48,1.11,2.48,2.48"/><path class="cls-2" d="M16.95,12.18c0,1.37-1.11,2.48-2.48,2.48s-2.48-1.11-2.48-2.48,1.11-2.48,2.48-2.48,2.48,1.11,2.48,2.48"/><path class="cls-2" d="M35.89,56.78c0,.27-.22.5-.5.5s-.49-.22-.49-.5.22-.5.49-.5.5.23.5.5"/><path class="cls-2" d="M36.06,53.48c0,.27-.22.5-.5.5s-.49-.22-.49-.5.22-.5.49-.5.5.22.5.5"/><path class="cls-2" d="M84.28,25c-1.29.46-2.71-.22-3.17-1.51-.46-1.29.22-2.71,1.51-3.17,1.29-.46,2.71.22,3.17,1.51.46,1.29-.22,2.71-1.51,3.17"/><path class="cls-2" d="M60.71,9.3c-1.21.43-2.53-.2-2.95-1.41-.43-1.21.2-2.53,1.41-2.96,1.21-.43,2.53.21,2.96,1.41.43,1.2-.2,2.53-1.41,2.95"/><path class="cls-2" d="M66.05,14.25c-1.21.43-2.53-.2-2.95-1.41-.43-1.21.2-2.53,1.41-2.95,1.21-.43,2.53.2,2.95,1.41.43,1.21-.2,2.53-1.41,2.96"/><path class="cls-2" d="M71.39,19.21c-1.21.43-2.53-.2-2.95-1.41-.43-1.21.2-2.53,1.41-2.96,1.21-.43,2.53.2,2.96,1.41.43,1.21-.2,2.53-1.41,2.95"/><path class="cls-2" d="M76.6,24.79c-1.12.4-2.35-.19-2.74-1.31-.4-1.12.19-2.35,1.31-2.74,1.12-.4,2.35.19,2.74,1.31s-.19,2.35-1.31,2.75"/><path class="cls-2" d="M70.17,24.86c-.95.33-1.99-.16-2.32-1.11-.34-.95.16-1.99,1.11-2.32.95-.34,1.99.16,2.32,1.11.34.95-.16,1.99-1.11,2.32"/><path class="cls-2" d="M64.14,25.2c-.78.27-1.63-.13-1.9-.91-.27-.78.13-1.63.9-1.9.78-.27,1.63.13,1.9.91.27.77-.13,1.63-.91,1.9"/><path class="cls-2" d="M59.56,25.84c-.6.21-1.26-.1-1.48-.7-.21-.6.1-1.26.71-1.48.6-.21,1.26.1,1.48.7.21.6-.1,1.27-.7,1.48"/><path class="cls-2" d="M55.34,26.57c-.43.15-.9-.07-1.05-.5-.15-.43.07-.9.5-1.06.43-.15.9.07,1.06.5.15.43-.07.9-.5,1.06"/><path class="cls-2" d="M54.5,11.5c-1.12.4-2.35-.19-2.74-1.31-.4-1.12.19-2.35,1.31-2.74,1.12-.4,2.35.19,2.74,1.31.4,1.12-.19,2.35-1.31,2.74"/><path class="cls-2" d="M60.13,15.56c-1.12.4-2.35-.19-2.74-1.31-.4-1.12.19-2.35,1.31-2.74,1.12-.4,2.35.19,2.74,1.31.4,1.12-.19,2.35-1.31,2.74"/><path class="cls-2" d="M55.07,17.08c-1.03.37-2.17-.17-2.53-1.21-.37-1.03.18-2.17,1.21-2.53,1.03-.37,2.17.17,2.53,1.21.37,1.03-.17,2.17-1.21,2.53"/><path class="cls-2" d="M60.19,21.26c-1.03.37-2.17-.17-2.53-1.21-.37-1.03.17-2.17,1.21-2.53,1.03-.36,2.17.18,2.53,1.21.37,1.03-.18,2.17-1.21,2.53"/><path class="cls-2" d="M50.83,19.08c-.95.34-1.99-.16-2.32-1.11-.34-.95.16-1.99,1.11-2.32.95-.34,1.98.16,2.32,1.11.33.95-.16,1.99-1.11,2.32"/><path class="cls-2" d="M55.47,22.43c-.95.34-1.98-.16-2.32-1.11-.34-.95.16-1.99,1.11-2.32.95-.33,1.99.16,2.32,1.11.34.95-.16,1.99-1.11,2.32"/><path class="cls-2" d="M47.03,21.51c-.86.3-1.81-.15-2.11-1.01-.3-.86.15-1.81,1.01-2.11.86-.31,1.81.15,2.11,1.01.3.86-.15,1.81-1.01,2.11"/><path class="cls-2" d="M51.53,23.93c-.86.3-1.8-.15-2.11-1.01-.3-.86.15-1.81,1.01-2.11.86-.31,1.8.14,2.11,1.01.31.86-.14,1.81-1.01,2.11"/><path class="cls-2" d="M44.28,24.67c-.78.27-1.62-.13-1.9-.9-.27-.78.13-1.63.91-1.9.78-.27,1.62.13,1.9.91.27.77-.13,1.63-.91,1.9"/><path class="cls-2" d="M48.52,26.06c-.77.27-1.62-.13-1.9-.91-.27-.78.13-1.62.91-1.9.78-.27,1.62.13,1.9.91.28.77-.13,1.63-.91,1.9"/><path class="cls-2" d="M42.43,27.86c-.69.24-1.44-.12-1.69-.81-.24-.69.12-1.44.8-1.69.69-.24,1.44.12,1.69.81.24.69-.12,1.44-.81,1.69"/><path class="cls-2" d="M46.2,28.43c-.69.24-1.44-.11-1.69-.81-.25-.69.12-1.44.81-1.69.69-.24,1.45.12,1.69.81.24.69-.12,1.44-.81,1.69"/><path class="cls-2" d="M40.83,30.65c-.6.21-1.26-.1-1.48-.7-.21-.6.1-1.26.7-1.48.6-.21,1.27.1,1.48.71.21.6-.1,1.26-.71,1.48"/><path class="cls-2" d="M44.22,30.81c-.6.21-1.26-.1-1.48-.71-.21-.6.1-1.26.7-1.48.6-.21,1.26.1,1.48.7.21.6-.1,1.26-.71,1.48"/><path class="cls-2" d="M39.57,33.18c-.52.18-1.08-.09-1.27-.6-.18-.52.09-1.08.6-1.27.52-.18,1.08.09,1.27.6.18.52-.09,1.08-.6,1.27"/><path class="cls-2" d="M42.67,32.99c-.52.18-1.08-.09-1.26-.61-.18-.52.09-1.08.6-1.27.52-.18,1.08.09,1.27.6.18.52-.09,1.08-.61,1.27"/><path class="cls-2" d="M38.6,35.48c-.43.15-.9-.07-1.06-.5-.15-.43.07-.9.5-1.06.43-.15.9.07,1.05.5.15.43-.07.9-.5,1.05"/><path class="cls-2" d="M41.45,35c-.43.15-.9-.07-1.06-.5-.15-.43.07-.9.5-1.05.43-.15.9.07,1.06.5.15.43-.07.9-.5,1.06"/><path class="cls-2" d="M37.82,37.48c-.34.12-.72-.06-.84-.4-.12-.35.06-.72.4-.85.34-.12.72.06.84.4.12.34-.06.72-.4.85"/><path class="cls-2" d="M40.57,36.86c-.34.12-.72-.06-.84-.4-.12-.34.06-.72.4-.84.34-.12.72.06.84.4.12.35-.06.72-.4.85"/><path class="cls-2" d="M65.35,20.04c-1.12.39-2.35-.19-2.74-1.31-.4-1.12.19-2.35,1.31-2.74,1.12-.4,2.35.19,2.74,1.31.39,1.12-.19,2.35-1.31,2.74"/><path class="cls-2" d="M49.18,13.59c-1.04.37-2.17-.17-2.53-1.21-.37-1.03.17-2.17,1.21-2.53,1.03-.37,2.17.17,2.53,1.21.37,1.03-.17,2.17-1.21,2.53"/><path class="cls-2" d="M44.6,15.95c-.95.34-1.99-.16-2.33-1.11-.33-.95.16-1.99,1.11-2.32.95-.33,1.99.16,2.32,1.11.34.95-.16,1.99-1.11,2.32"/><path class="cls-2" d="M40.64,18.74c-.86.3-1.81-.15-2.11-1.01-.3-.86.15-1.81,1.01-2.11.86-.3,1.81.14,2.11,1.01.31.86-.14,1.8-1,2.11"/><path class="cls-2" d="M37.79,22.18c-.77.28-1.63-.13-1.9-.9-.27-.78.13-1.62.91-1.9.77-.27,1.62.13,1.9.91.27.77-.13,1.63-.91,1.9"/><path class="cls-2" d="M35.72,25.76c-.69.24-1.44-.12-1.69-.8-.24-.69.12-1.44.81-1.69.69-.24,1.44.12,1.69.8.25.69-.11,1.44-.81,1.69"/><path class="cls-2" d="M40.13,25.09c-.69.25-1.44-.11-1.69-.8-.24-.69.12-1.44.81-1.69.69-.24,1.44.12,1.69.81.24.69-.12,1.44-.8,1.69"/><path class="cls-2" d="M34.48,29.26c-.6.21-1.27-.1-1.48-.7-.21-.6.1-1.27.71-1.48.6-.21,1.26.1,1.48.71.21.6-.1,1.26-.7,1.48"/><path class="cls-2" d="M38.33,28.37c-.6.21-1.27-.1-1.48-.7-.21-.6.1-1.27.71-1.48.6-.21,1.26.1,1.48.71.21.6-.1,1.26-.7,1.48"/><path class="cls-2" d="M33.71,32.33c-.52.18-1.08-.09-1.27-.6-.18-.52.09-1.08.6-1.27.52-.18,1.08.09,1.27.6.18.52-.09,1.08-.6,1.27"/><path class="cls-2" d="M37.04,31.27c-.52.18-1.08-.09-1.27-.6-.18-.52.09-1.08.61-1.27.52-.18,1.08.09,1.27.6.18.52-.09,1.08-.6,1.27"/><path class="cls-2" d="M32.88,35.13c-.43.15-.9-.07-1.06-.5-.15-.43.07-.9.5-1.06.43-.15.9.07,1.06.5.15.43-.07.9-.5,1.05"/><path class="cls-2" d="M36.03,33.87c-.43.15-.9-.07-1.06-.5-.15-.43.07-.9.5-1.05.43-.15.9.07,1.05.5.15.43-.07.9-.5,1.06"/><path class="cls-2" d="M32.33,37.5c-.34.12-.72-.06-.85-.4-.12-.35.06-.72.4-.85.35-.12.72.06.84.4.12.34-.06.72-.4.84"/><path class="cls-2" d="M35.37,36.31c-.34.12-.72-.06-.84-.4-.12-.35.06-.72.4-.85.35-.12.72.06.85.4.12.34-.06.72-.4.84"/><path class="cls-2" d="M78.69,18.93c-1.29.46-2.71-.22-3.17-1.51-.46-1.29.22-2.71,1.51-3.17,1.29-.46,2.71.22,3.17,1.51.46,1.29-.22,2.71-1.51,3.16"/><path class="cls-2" d="M73.11,12.85c-1.29.46-2.71-.22-3.17-1.51-.46-1.29.22-2.71,1.51-3.17,1.29-.46,2.71.22,3.17,1.51.46,1.29-.22,2.71-1.51,3.17"/><path class="cls-2" d="M67.53,6.77c-1.29.46-2.71-.22-3.17-1.51-.46-1.29.22-2.71,1.51-3.17,1.29-.46,2.71.22,3.17,1.51.46,1.29-.22,2.71-1.51,3.17"/><path class="cls-2" d="M31.81,39.51c-.26.09-.54-.04-.63-.3-.09-.26.04-.54.3-.63.26-.09.54.04.63.3.09.26-.04.54-.3.63"/><path class="cls-2" d="M34.98,38.58c-.26.09-.54-.04-.63-.3-.09-.26.04-.54.3-.63.26-.09.54.04.63.3.09.26-.04.54-.3.63"/><path class="cls-2" d="M77.17,74.73c-.85-1.07-.68-2.63.39-3.49,1.07-.86,2.63-.68,3.49.39.85,1.07.68,2.63-.39,3.49-1.07.85-2.63.68-3.49-.39"/><path class="cls-2" d="M84.29,47.32c-.8-1-.63-2.45.37-3.25,1-.8,2.46-.64,3.25.36.8,1,.63,2.46-.36,3.25-1,.8-2.45.64-3.25-.36"/><path class="cls-2" d="M81.36,53.99c-.8-1-.63-2.46.36-3.25,1-.8,2.46-.64,3.25.37.8,1,.64,2.45-.36,3.25-1,.8-2.46.64-3.26-.36"/><path class="cls-2" d="M78.43,60.66c-.8-1-.64-2.46.36-3.25,1-.8,2.46-.64,3.26.36.8,1,.63,2.45-.37,3.25-1,.8-2.46.64-3.25-.36"/><path class="cls-2" d="M74.86,67.41c-.74-.93-.59-2.28.34-3.02.93-.74,2.28-.59,3.02.34.74.93.59,2.28-.34,3.02-.93.74-2.28.59-3.02-.34"/><path class="cls-2" d="M72.68,61.35c-.63-.78-.5-1.93.29-2.55.79-.63,1.93-.5,2.56.28.63.79.5,1.93-.29,2.56-.78.63-1.93.5-2.56-.29"/><path class="cls-2" d="M70.39,55.77c-.51-.64-.41-1.58.24-2.09.64-.51,1.58-.41,2.09.23.51.64.41,1.58-.24,2.09-.64.51-1.58.41-2.09-.24"/><path class="cls-2" d="M68.29,51.65c-.4-.5-.32-1.23.18-1.63.5-.4,1.23-.32,1.63.18.4.5.32,1.23-.18,1.63-.5.4-1.23.32-1.63-.18"/><path class="cls-2" d="M66.22,47.9c-.28-.36-.23-.88.13-1.16.36-.28.88-.23,1.16.13.29.36.23.88-.13,1.16-.36.29-.88.23-1.16-.13"/><path class="cls-2" d="M80.18,42.18c-.74-.93-.59-2.28.34-3.02.93-.74,2.28-.59,3.02.34.74.93.59,2.28-.34,3.02-.93.74-2.28.59-3.02-.34"/><path class="cls-2" d="M78.19,48.82c-.74-.93-.59-2.28.33-3.02.93-.74,2.28-.59,3.02.34.74.93.59,2.28-.34,3.02-.93.74-2.28.59-3.02-.34"/><path class="cls-2" d="M75.09,44.53c-.68-.86-.55-2.1.31-2.79.86-.69,2.1-.54,2.79.31.68.86.55,2.11-.31,2.79-.86.69-2.1.54-2.79-.31"/><path class="cls-2" d="M72.82,50.75c-.69-.86-.55-2.1.31-2.79.86-.69,2.1-.55,2.79.31.68.86.55,2.1-.31,2.79-.86.68-2.1.54-2.79-.31"/><path class="cls-2" d="M71.82,41.18c-.63-.79-.5-1.93.28-2.56.78-.63,1.93-.5,2.56.29.63.78.5,1.93-.29,2.56-.79.63-1.93.5-2.55-.29"/><path class="cls-2" d="M70.16,46.67c-.63-.79-.5-1.93.29-2.56.78-.63,1.93-.5,2.56.29.63.79.5,1.93-.29,2.56-.79.63-1.93.5-2.56-.28"/><path class="cls-2" d="M68.27,38.39c-.57-.71-.45-1.75.26-2.32.72-.57,1.76-.46,2.32.26.57.71.45,1.75-.26,2.32-.72.57-1.76.45-2.33-.26"/><path class="cls-2" d="M67.46,43.43c-.57-.71-.46-1.75.26-2.32.71-.57,1.75-.45,2.32.26.57.72.46,1.75-.26,2.32-.71.57-1.75.45-2.32-.26"/><path class="cls-2" d="M64.38,36.83c-.51-.64-.41-1.58.23-2.09.64-.51,1.58-.41,2.09.24.51.64.41,1.58-.24,2.09-.64.51-1.58.41-2.09-.23"/><path class="cls-2" d="M64.45,41.29c-.51-.64-.41-1.58.23-2.09.64-.51,1.58-.41,2.09.23.51.64.41,1.58-.24,2.09-.64.52-1.58.41-2.09-.23"/><path class="cls-2" d="M60.76,36.13c-.46-.57-.36-1.4.21-1.86.57-.46,1.4-.36,1.86.21.46.57.36,1.4-.21,1.86-.57.46-1.4.36-1.86-.21"/><path class="cls-2" d="M61.46,39.87c-.46-.57-.37-1.4.21-1.86.57-.46,1.4-.36,1.86.21.46.57.37,1.4-.21,1.86-.57.46-1.4.36-1.86-.21"/><path class="cls-2" d="M57.6,35.53c-.4-.5-.32-1.23.18-1.63.5-.4,1.23-.32,1.63.18.4.5.32,1.23-.18,1.63-.5.4-1.23.32-1.63-.18"/><path class="cls-2" d="M58.57,38.78c-.4-.5-.32-1.23.18-1.63.5-.4,1.23-.32,1.63.18.4.5.32,1.23-.18,1.63-.5.4-1.23.32-1.63-.18"/><path class="cls-2" d="M54.8,35.17c-.34-.43-.27-1.05.16-1.4.43-.34,1.05-.27,1.39.16.34.43.27,1.05-.16,1.39-.43.34-1.05.27-1.4-.16"/><path class="cls-2" d="M55.99,38.04c-.34-.43-.27-1.05.16-1.39.43-.34,1.05-.27,1.39.15.34.43.27,1.05-.16,1.39-.43.34-1.05.27-1.39-.16"/><path class="cls-2" d="M52.31,35.01c-.28-.36-.23-.88.13-1.16.36-.29.88-.23,1.16.13.28.36.23.88-.13,1.16-.36.28-.88.23-1.16-.13"/><path class="cls-2" d="M53.7,37.53c-.29-.36-.23-.88.13-1.16.36-.28.88-.23,1.16.13.28.36.23.88-.13,1.16-.36.28-.88.23-1.16-.13"/><path class="cls-2" d="M50.17,34.92c-.23-.29-.18-.7.1-.93.28-.23.7-.18.93.1.23.29.18.7-.1.93-.28.23-.7.18-.93-.1"/><path class="cls-2" d="M51.65,37.32c-.23-.29-.18-.7.1-.93.29-.23.7-.18.93.1.23.29.18.7-.1.93-.29.23-.7.18-.93-.1"/><path class="cls-2" d="M75.66,55.23c-.74-.93-.59-2.28.34-3.02.93-.74,2.28-.59,3.02.34.74.93.59,2.28-.34,3.02-.93.74-2.28.59-3.02-.34"/><path class="cls-2" d="M76.45,37.83c-.68-.86-.54-2.11.31-2.79.86-.69,2.1-.55,2.79.31.68.86.54,2.11-.31,2.79-.86.68-2.1.55-2.79-.31"/><path class="cls-2" d="M72.73,34.27c-.63-.79-.5-1.93.28-2.56.78-.63,1.93-.5,2.56.29.63.79.5,1.93-.29,2.56-.79.62-1.93.5-2.55-.29"/><path class="cls-2" d="M68.8,31.45c-.57-.71-.45-1.75.26-2.32.72-.57,1.75-.45,2.33.26.57.71.45,1.75-.26,2.32-.71.57-1.75.45-2.32-.26"/><path class="cls-2" d="M64.61,29.88c-.51-.65-.41-1.58.24-2.09.64-.51,1.58-.41,2.09.24.51.64.41,1.58-.23,2.09-.64.51-1.58.41-2.09-.23"/><path class="cls-2" d="M60.55,29.1c-.46-.57-.37-1.4.21-1.86.57-.46,1.4-.36,1.86.21.46.57.36,1.4-.21,1.86-.57.46-1.4.36-1.86-.21"/><path class="cls-2" d="M62.62,33.04c-.46-.57-.36-1.4.21-1.86.57-.46,1.4-.36,1.86.21.46.57.36,1.4-.21,1.86-.57.46-1.4.36-1.86-.21"/><path class="cls-2" d="M56.84,29.08c-.4-.5-.32-1.23.18-1.63.5-.4,1.23-.32,1.63.18.4.5.32,1.23-.18,1.63-.5.4-1.23.32-1.63-.18"/><path class="cls-2" d="M58.94,32.42c-.4-.5-.32-1.23.18-1.63.5-.4,1.23-.32,1.63.18.4.5.32,1.23-.18,1.63-.5.4-1.23.32-1.63-.18"/><path class="cls-2" d="M53.68,29.35c-.34-.43-.27-1.05.16-1.39.43-.34,1.05-.27,1.39.16.34.43.27,1.05-.16,1.39-.43.34-1.05.27-1.39-.16"/><path class="cls-2" d="M55.78,32.16c-.34-.43-.27-1.05.15-1.39.43-.34,1.05-.27,1.4.16.34.43.27,1.05-.15,1.39-.43.34-1.05.27-1.4-.16"/><path class="cls-2" d="M50.77,29.49c-.29-.36-.23-.88.13-1.16.36-.28.87-.23,1.16.13.29.36.23.88-.13,1.16-.36.29-.88.23-1.16-.13"/><path class="cls-2" d="M52.99,32.05c-.29-.36-.23-.88.13-1.16.36-.28.88-.23,1.16.13.28.36.23.88-.13,1.16-.36.29-.87.23-1.16-.13"/><path class="cls-2" d="M48.35,29.74c-.23-.29-.18-.7.1-.93.28-.23.7-.18.93.1.23.29.18.7-.1.93-.28.23-.7.18-.93-.1"/><path class="cls-2" d="M50.47,32.23c-.23-.29-.18-.7.1-.93.29-.23.7-.18.93.1.23.29.18.7-.1.93-.28.23-.7.18-.93-.1"/><path class="cls-2" d="M81.08,67.46c-.85-1.07-.68-2.63.39-3.48,1.07-.86,2.63-.68,3.49.39.85,1.07.68,2.63-.39,3.48-1.07.86-2.63.68-3.49-.39"/><path class="cls-2" d="M84.99,60.2c-.86-1.07-.68-2.63.39-3.49,1.07-.86,2.63-.68,3.49.39.86,1.07.68,2.63-.39,3.49-1.07.85-2.63.68-3.49-.39"/><path class="cls-2" d="M88.91,52.93c-.86-1.07-.68-2.63.39-3.49,1.07-.85,2.63-.68,3.49.39.85,1.07.68,2.63-.39,3.49-1.07.86-2.63.68-3.49-.39"/><path class="cls-2" d="M46.27,29.91c-.17-.21-.14-.52.08-.7.21-.17.53-.13.7.08.17.21.14.53-.08.7-.21.17-.53.14-.7-.08"/><path class="cls-2" d="M48.2,32.6c-.17-.21-.14-.53.08-.7.21-.17.53-.13.7.08.17.21.14.53-.08.7-.21.17-.53.14-.7-.08"/><path class="cls-2" d="M28.32,85.15c.74-1.15,2.27-1.49,3.43-.75,1.16.74,1.49,2.27.75,3.43-.74,1.15-2.27,1.49-3.43.75-1.15-.74-1.49-2.27-.75-3.43"/><path class="cls-2" d="M56.57,83.09c.69-1.08,2.12-1.39,3.2-.7,1.08.69,1.39,2.12.7,3.2-.69,1.08-2.12,1.39-3.2.7-1.08-.69-1.39-2.12-.7-3.2"/><path class="cls-2" d="M49.31,82.46c.69-1.08,2.12-1.39,3.2-.7,1.08.69,1.39,2.12.7,3.2-.69,1.08-2.12,1.39-3.2.7-1.08-.69-1.39-2.12-.7-3.2"/><path class="cls-2" d="M42.05,81.82c.69-1.07,2.12-1.39,3.2-.7,1.08.69,1.39,2.12.7,3.2-.69,1.08-2.12,1.39-3.2.7-1.07-.69-1.39-2.12-.7-3.2"/><path class="cls-2" d="M34.51,80.61c.64-1,1.97-1.29,2.97-.65,1,.64,1.29,1.97.65,2.97-.64,1-1.97,1.29-2.97.65-1-.64-1.29-1.97-.65-2.97"/><path class="cls-2" d="M39.55,76.61c.54-.85,1.67-1.09,2.51-.55.85.54,1.09,1.67.55,2.51-.54.85-1.67,1.1-2.51.55-.85-.54-1.09-1.67-.55-2.51"/><path class="cls-2" d="M44.1,72.64c.44-.69,1.36-.9,2.06-.45.69.44.89,1.36.45,2.05-.44.69-1.36.89-2.06.45-.69-.45-.89-1.36-.45-2.06"/><path class="cls-2" d="M47.32,69.33c.35-.54,1.06-.69,1.6-.35.54.35.7,1.06.35,1.6-.34.54-1.06.69-1.6.35-.54-.35-.7-1.06-.35-1.6"/><path class="cls-2" d="M50.21,66.16c.25-.39.76-.5,1.14-.25.38.25.49.76.25,1.14-.24.38-.76.5-1.14.25-.38-.25-.5-.76-.25-1.14"/><path class="cls-2" d="M60.12,77.55c.64-1,1.97-1.29,2.97-.65,1,.64,1.29,1.97.65,2.97-.64,1-1.97,1.29-2.97.65-1-.64-1.29-1.97-.65-2.97"/><path class="cls-2" d="M53.18,77.8c.64-1,1.97-1.29,2.97-.65,1,.64,1.29,1.97.65,2.97-.64,1-1.97,1.29-2.97.65-1-.64-1.29-1.97-.65-2.97"/><path class="cls-2" d="M56.25,73.49c.59-.92,1.82-1.19,2.74-.6.92.59,1.19,1.82.6,2.74-.59.92-1.82,1.19-2.74.6-.92-.59-1.19-1.82-.6-2.74"/><path class="cls-2" d="M49.64,73.33c.59-.92,1.82-1.19,2.74-.6.92.59,1.19,1.82.6,2.74-.59.92-1.82,1.19-2.74.6-.92-.59-1.19-1.82-.6-2.74"/><path class="cls-2" d="M58.37,69.31c.54-.85,1.67-1.1,2.51-.55.85.54,1.09,1.67.55,2.51-.54.85-1.67,1.09-2.51.55-.85-.54-1.09-1.67-.55-2.51"/><path class="cls-2" d="M52.65,69.5c.54-.85,1.67-1.09,2.51-.55.85.54,1.09,1.67.55,2.51-.54.85-1.67,1.09-2.51.55-.85-.54-1.09-1.67-.55-2.51"/><path class="cls-2" d="M59.87,65.06c.49-.77,1.51-.99,2.28-.5.77.49.99,1.52.5,2.28-.49.77-1.51.99-2.28.5-.77-.49-.99-1.51-.5-2.29"/><path class="cls-2" d="M54.84,65.9c.49-.77,1.52-.99,2.29-.5.77.49.99,1.52.5,2.28-.49.77-1.52.99-2.29.5-.77-.49-.99-1.52-.5-2.28"/><path class="cls-2" d="M60.11,60.87c.44-.69,1.36-.89,2.05-.45.69.44.89,1.36.45,2.06-.44.69-1.36.9-2.05.45-.69-.45-.89-1.36-.45-2.06"/><path class="cls-2" d="M55.91,62.37c.44-.69,1.36-.89,2.06-.45.69.44.89,1.36.45,2.05-.44.69-1.36.9-2.06.45-.69-.45-.89-1.37-.45-2.06"/><path class="cls-2" d="M59.6,57.22c.39-.61,1.21-.79,1.83-.4.61.39.79,1.21.4,1.83-.4.61-1.21.79-1.83.4-.61-.39-.79-1.21-.4-1.83"/><path class="cls-2" d="M56.28,59.08c.39-.61,1.21-.79,1.83-.4.62.39.79,1.21.4,1.83s-1.21.8-1.83.4c-.61-.39-.79-1.21-.4-1.83"/><path class="cls-2" d="M59.16,54.03c.34-.54,1.06-.69,1.6-.35.54.35.7,1.06.35,1.6-.34.54-1.06.7-1.6.35-.54-.35-.7-1.06-.35-1.6"/><path class="cls-2" d="M56.39,55.99c.34-.54,1.06-.69,1.6-.35.54.35.69,1.06.35,1.6-.35.54-1.06.69-1.6.35-.54-.35-.69-1.06-.35-1.6"/><path class="cls-2" d="M58.6,51.27c.3-.46.91-.6,1.37-.3.46.3.6.91.3,1.37-.3.46-.91.6-1.37.3-.46-.3-.6-.91-.3-1.37"/><path class="cls-2" d="M56.27,53.31c.29-.46.91-.6,1.37-.3.46.3.6.91.3,1.37-.3.46-.91.59-1.37.3-.46-.3-.59-.91-.3-1.37"/><path class="cls-2" d="M57.96,48.86c.25-.39.76-.5,1.14-.25.38.25.5.76.25,1.14-.25.38-.76.49-1.14.25-.39-.25-.5-.76-.25-1.14"/><path class="cls-2" d="M56.01,50.98c.25-.38.76-.49,1.14-.25.38.25.49.76.25,1.14-.25.38-.76.5-1.14.25-.38-.25-.5-.76-.25-1.14"/><path class="cls-2" d="M57.35,46.79c.2-.31.6-.4.91-.2.31.2.4.61.2.91-.2.31-.6.4-.91.2-.31-.19-.4-.6-.2-.91"/><path class="cls-2" d="M55.55,48.97c.2-.31.6-.4.91-.2.31.2.4.61.2.91-.2.31-.6.4-.91.2-.31-.2-.4-.61-.2-.91"/><path class="cls-2" d="M46.31,77.46c.64-1,1.97-1.29,2.97-.65,1,.64,1.29,1.97.65,2.97-.64,1-1.97,1.29-2.97.65-1-.64-1.29-1.97-.65-2.97"/><path class="cls-2" d="M63.03,72.62c.59-.92,1.82-1.19,2.74-.6.92.59,1.19,1.82.6,2.74-.59.92-1.82,1.19-2.74.6-.92-.59-1.19-1.82-.6-2.74"/><path class="cls-2" d="M65.21,67.95c.54-.85,1.67-1.09,2.51-.55.85.54,1.09,1.67.55,2.51-.54.85-1.67,1.09-2.51.55-.85-.54-1.09-1.67-.55-2.51"/><path class="cls-2" d="M66.62,63.33c.49-.77,1.51-.99,2.29-.5.77.49.99,1.52.5,2.29-.49.77-1.51.99-2.28.5-.77-.49-.99-1.52-.5-2.28"/><path class="cls-2" d="M66.76,58.85c.44-.69,1.36-.9,2.05-.45.69.44.89,1.36.45,2.06-.44.69-1.36.89-2.06.45-.69-.45-.89-1.36-.45-2.06"/><path class="cls-2" d="M66.19,54.76c.4-.62,1.21-.8,1.83-.4.62.39.79,1.21.4,1.83-.39.62-1.21.8-1.83.4-.62-.39-.8-1.21-.4-1.83"/><path class="cls-2" d="M63.13,57.99c.4-.62,1.21-.8,1.83-.4.62.39.79,1.21.4,1.83-.39.62-1.21.79-1.83.4-.61-.39-.79-1.21-.4-1.83"/><path class="cls-2" d="M65.02,51.24c.35-.54,1.06-.7,1.6-.35.54.35.69,1.06.35,1.6-.34.54-1.06.7-1.6.35-.54-.34-.69-1.06-.35-1.6"/><path class="cls-2" d="M62.54,54.3c.35-.54,1.06-.7,1.6-.35.54.35.69,1.06.35,1.6-.34.54-1.06.7-1.6.35-.54-.35-.69-1.06-.35-1.6"/><path class="cls-2" d="M63.75,48.34c.3-.46.91-.6,1.37-.3.46.3.6.91.3,1.37-.3.46-.91.59-1.37.3-.46-.3-.6-.91-.3-1.37"/><path class="cls-2" d="M61.77,51.22c.3-.46.91-.6,1.37-.3.46.3.6.91.3,1.37-.3.46-.91.59-1.37.3-.46-.3-.6-.91-.3-1.37"/><path class="cls-2" d="M62.69,45.62c.25-.39.76-.5,1.14-.25.38.24.49.76.25,1.14-.25.38-.76.5-1.14.25-.38-.25-.5-.76-.25-1.14"/><path class="cls-2" d="M60.98,48.55c.25-.38.76-.5,1.14-.25.39.25.5.76.25,1.14-.25.38-.76.5-1.14.25-.39-.24-.5-.76-.25-1.14"/><path class="cls-2" d="M61.67,43.41c.2-.31.61-.4.91-.2.31.2.4.6.2.91-.2.31-.61.4-.91.2-.31-.2-.4-.6-.2-.91"/><path class="cls-2" d="M59.99,46.21c.2-.31.61-.4.91-.2.31.2.4.61.2.91-.2.31-.61.4-.91.2-.31-.2-.4-.6-.2-.91"/><path class="cls-2" d="M36.46,86.52c.74-1.15,2.27-1.49,3.43-.75,1.15.74,1.49,2.27.75,3.43-.74,1.15-2.27,1.49-3.43.75-1.15-.74-1.49-2.27-.75-3.43"/><path class="cls-2" d="M44.59,87.9c.74-1.15,2.27-1.49,3.43-.75,1.15.74,1.49,2.27.75,3.43-.74,1.15-2.27,1.49-3.43.75-1.15-.74-1.49-2.28-.75-3.43"/><path class="cls-2" d="M52.73,89.27c.74-1.15,2.27-1.49,3.43-.75,1.15.74,1.49,2.28.75,3.43-.74,1.15-2.27,1.49-3.43.75-1.15-.74-1.49-2.27-.75-3.43"/><path class="cls-2" d="M60.84,41.5c.15-.23.45-.3.68-.15.23.15.3.46.15.69-.15.23-.45.3-.68.15-.23-.15-.3-.46-.15-.69"/><path class="cls-2" d="M58.92,44.18c.15-.23.45-.3.69-.15.23.15.3.46.15.69-.15.23-.45.3-.69.15-.23-.15-.3-.46-.15-.69"/><path class="cls-2" d="M3.28,39.41c1.31.4,2.05,1.78,1.66,3.09-.39,1.31-1.78,2.05-3.09,1.66-1.31-.4-2.06-1.78-1.66-3.09.4-1.31,1.78-2.06,3.09-1.66"/><path class="cls-2" d="M12.97,66.02c1.22.37,1.92,1.66,1.55,2.88-.37,1.22-1.66,1.92-2.89,1.55-1.22-.37-1.92-1.66-1.55-2.89.37-1.23,1.66-1.92,2.89-1.55"/><path class="cls-2" d="M11.6,58.87c1.23.37,1.92,1.66,1.55,2.89-.37,1.22-1.66,1.92-2.88,1.55-1.23-.37-1.92-1.66-1.55-2.88.37-1.23,1.66-1.92,2.89-1.55"/><path class="cls-2" d="M10.23,51.71c1.22.37,1.92,1.66,1.55,2.89-.37,1.23-1.66,1.92-2.89,1.55-1.22-.37-1.92-1.66-1.55-2.89.37-1.22,1.66-1.92,2.89-1.55"/><path class="cls-2" d="M9.33,44.12c1.14.34,1.78,1.54,1.44,2.68-.34,1.14-1.54,1.78-2.68,1.44-1.14-.34-1.78-1.54-1.44-2.68.35-1.14,1.54-1.78,2.68-1.44"/><path class="cls-2" d="M14.56,47.88c.96.29,1.5,1.3,1.21,2.27-.29.96-1.3,1.5-2.27,1.21-.96-.29-1.51-1.3-1.21-2.26.29-.96,1.3-1.51,2.27-1.22"/><path class="cls-2" d="M19.62,51.17c.79.24,1.23,1.07.99,1.85-.24.79-1.07,1.23-1.85.99-.79-.24-1.23-1.07-1-1.85.24-.79,1.07-1.23,1.86-.99"/><path class="cls-2" d="M23.69,53.37c.61.19.96.83.77,1.44-.19.61-.83.96-1.44.77-.61-.19-.96-.83-.77-1.44.18-.61.83-.96,1.44-.77"/><path class="cls-2" d="M27.52,55.28c.44.13.68.6.55,1.03-.13.44-.59.68-1.03.55-.44-.13-.68-.59-.55-1.03.13-.44.59-.69,1.03-.55"/><path class="cls-2" d="M19.27,67.92c1.14.34,1.78,1.54,1.44,2.68-.34,1.14-1.54,1.78-2.68,1.44-1.14-.34-1.78-1.54-1.44-2.68.35-1.14,1.54-1.78,2.68-1.43"/><path class="cls-2" d="M17.14,61.32c1.14.34,1.78,1.54,1.44,2.68-.35,1.14-1.54,1.78-2.68,1.44-1.14-.34-1.78-1.54-1.44-2.68.34-1.14,1.54-1.78,2.68-1.44"/><path class="cls-2" d="M22.12,63.09c1.05.32,1.64,1.42,1.33,2.48-.32,1.05-1.42,1.64-2.47,1.32-1.05-.32-1.64-1.42-1.33-2.47.32-1.05,1.42-1.64,2.47-1.33"/><path class="cls-2" d="M20.47,56.69c1.05.32,1.64,1.42,1.32,2.47-.32,1.05-1.42,1.64-2.47,1.33-1.05-.32-1.64-1.42-1.33-2.47.32-1.05,1.42-1.64,2.47-1.33"/><path class="cls-2" d="M26.72,63.99c.96.29,1.51,1.31,1.22,2.27-.29.96-1.31,1.51-2.27,1.21-.96-.29-1.51-1.3-1.21-2.26.29-.96,1.3-1.51,2.26-1.22"/><path class="cls-2" d="M24.97,58.54c.96.29,1.51,1.31,1.21,2.27-.29.96-1.31,1.51-2.27,1.22-.96-.29-1.5-1.3-1.21-2.27.29-.96,1.31-1.51,2.27-1.21"/><path class="cls-2" d="M31.22,64.28c.88.26,1.37,1.18,1.11,2.06-.26.88-1.19,1.37-2.06,1.1-.87-.26-1.37-1.19-1.1-2.06.26-.88,1.18-1.37,2.06-1.1"/><path class="cls-2" d="M29.03,59.67c.87.26,1.37,1.19,1.11,2.06-.26.88-1.19,1.37-2.06,1.1-.87-.27-1.37-1.19-1.1-2.06.26-.88,1.19-1.37,2.06-1.1"/><path class="cls-2" d="M35.31,63.36c.79.24,1.23,1.07.99,1.85-.24.79-1.07,1.23-1.85.99-.79-.24-1.23-1.07-.99-1.85.24-.79,1.07-1.23,1.85-.99"/><path class="cls-2" d="M32.72,59.73c.79.24,1.23,1.07.99,1.86-.24.79-1.07,1.23-1.85.99-.79-.24-1.23-1.07-1-1.86.24-.79,1.07-1.23,1.86-.99"/><path class="cls-2" d="M38.69,61.88c.7.21,1.09.95.88,1.65-.21.7-.95,1.1-1.65.89-.7-.21-1.1-.95-.88-1.65.21-.7.95-1.09,1.65-.88"/><path class="cls-2" d="M35.99,59.19c.7.21,1.09.95.88,1.65-.21.7-.95,1.1-1.65.88-.7-.21-1.1-.95-.88-1.65.21-.7.95-1.1,1.65-.89"/><path class="cls-2" d="M41.64,60.58c.61.19.96.83.77,1.44-.18.61-.83.96-1.44.77-.61-.19-.96-.83-.78-1.44.19-.61.83-.96,1.45-.77"/><path class="cls-2" d="M38.99,58.45c.61.19.96.83.77,1.44-.19.61-.83.96-1.44.77-.61-.18-.96-.83-.77-1.44.19-.61.83-.96,1.44-.77"/><path class="cls-2" d="M44.14,59.29c.52.16.82.71.66,1.24-.16.53-.71.82-1.24.66-.52-.16-.82-.71-.66-1.24.16-.53.71-.82,1.24-.66"/><path class="cls-2" d="M41.54,57.6c.52.16.82.71.66,1.24-.16.53-.71.82-1.24.66-.52-.16-.82-.71-.66-1.24.16-.52.71-.82,1.24-.66"/><path class="cls-2" d="M46.28,58.01c.44.13.68.59.55,1.03-.13.44-.59.68-1.03.55-.44-.13-.68-.6-.55-1.03.13-.44.59-.68,1.03-.55"/><path class="cls-2" d="M43.71,56.71c.44.13.68.59.55,1.03-.13.44-.59.68-1.03.55-.44-.13-.69-.59-.55-1.03.13-.44.59-.69,1.03-.55"/><path class="cls-2" d="M48.1,56.86c.35.1.55.48.44.82-.11.35-.48.55-.82.44-.35-.11-.55-.48-.44-.82.1-.35.47-.55.82-.44"/><path class="cls-2" d="M45.52,55.73c.35.1.55.47.44.82-.11.35-.48.55-.82.44-.35-.11-.55-.47-.44-.82.11-.35.47-.55.82-.44"/><path class="cls-2" d="M15.59,54.61c1.14.34,1.78,1.54,1.44,2.68-.34,1.14-1.54,1.78-2.68,1.43-1.13-.34-1.78-1.54-1.44-2.68.34-1.14,1.54-1.78,2.68-1.44"/><path class="cls-2" d="M24.81,69.38c1.05.32,1.64,1.42,1.33,2.47-.32,1.05-1.43,1.64-2.48,1.32-1.05-.32-1.64-1.42-1.32-2.47.32-1.05,1.42-1.64,2.47-1.32"/><path class="cls-2" d="M29.9,70.2c.96.29,1.51,1.31,1.22,2.27-.29.96-1.3,1.51-2.27,1.21-.96-.29-1.51-1.3-1.22-2.27.29-.96,1.31-1.5,2.27-1.22"/><path class="cls-2" d="M34.73,70.3c.87.27,1.37,1.19,1.1,2.06-.26.87-1.19,1.37-2.06,1.1-.87-.26-1.37-1.19-1.1-2.06.26-.88,1.19-1.37,2.06-1.11"/><path class="cls-2" d="M39.07,69.21c.79.24,1.23,1.07,1,1.85-.24.79-1.07,1.23-1.85.99-.79-.24-1.23-1.07-1-1.85.24-.79,1.07-1.23,1.85-.99"/><path class="cls-2" d="M42.86,67.54c.7.21,1.1.95.89,1.65-.21.7-.95,1.1-1.65.88-.7-.21-1.1-.95-.88-1.65.21-.7.95-1.1,1.65-.89"/><path class="cls-2" d="M38.91,65.48c.7.21,1.1.95.88,1.65-.21.7-.95,1.1-1.65.89-.7-.21-1.1-.95-.88-1.65.21-.7.95-1.1,1.65-.88"/><path class="cls-2" d="M45.93,65.46c.61.18.96.83.77,1.44-.19.61-.83.96-1.44.77-.61-.19-.96-.83-.77-1.44.18-.61.83-.96,1.44-.77"/><path class="cls-2" d="M42.3,63.9c.61.19.96.83.77,1.45-.18.61-.83.96-1.44.77-.61-.19-.96-.83-.77-1.44.18-.61.83-.96,1.44-.77"/><path class="cls-2" d="M48.36,63.44c.53.16.82.71.66,1.24-.16.53-.71.82-1.24.66-.52-.16-.82-.71-.66-1.24.16-.52.71-.82,1.24-.66"/><path class="cls-2" d="M45.05,62.32c.52.16.82.71.66,1.24-.16.53-.71.82-1.24.66-.53-.16-.82-.71-.66-1.24.16-.53.71-.82,1.24-.66"/><path class="cls-2" d="M50.68,61.68c.44.13.69.59.55,1.03-.13.44-.59.68-1.03.55-.44-.13-.69-.59-.55-1.03.13-.44.59-.68,1.03-.55"/><path class="cls-2" d="M47.41,60.83c.44.13.69.6.55,1.03-.13.44-.59.68-1.03.55-.44-.13-.68-.59-.55-1.03.13-.44.59-.69,1.03-.55"/><path class="cls-2" d="M52.54,60.1c.35.1.55.47.44.82-.11.35-.48.55-.83.44-.35-.11-.55-.47-.44-.82.1-.35.47-.55.82-.44"/><path class="cls-2" d="M49.38,59.25c.35.1.55.47.44.82-.11.35-.47.55-.82.44-.35-.11-.55-.48-.44-.83.11-.35.48-.55.83-.44"/><path class="cls-2" d="M4.18,47.61c1.31.4,2.05,1.78,1.66,3.09-.4,1.31-1.78,2.05-3.09,1.66-1.31-.4-2.05-1.78-1.66-3.09.4-1.31,1.78-2.05,3.09-1.66"/><path class="cls-2" d="M5.08,55.82c1.31.4,2.06,1.78,1.66,3.09-.4,1.31-1.78,2.05-3.09,1.66-1.31-.4-2.05-1.78-1.66-3.09.4-1.31,1.78-2.05,3.09-1.66"/><path class="cls-2" d="M5.98,64.02c1.31.4,2.05,1.78,1.66,3.09-.4,1.31-1.78,2.05-3.09,1.66-1.31-.39-2.05-1.78-1.66-3.09.4-1.31,1.78-2.05,3.09-1.66"/><path class="cls-2" d="M54.15,58.77c.26.08.41.36.33.62-.08.26-.36.41-.62.33-.26-.08-.41-.35-.33-.62.08-.26.36-.41.62-.33"/><path class="cls-2" d="M51.04,57.66c.26.08.41.35.33.62-.08.26-.36.41-.62.33-.26-.08-.41-.35-.33-.62.08-.26.35-.41.62-.33"/><path class="cls-1" d="M51.65,113.99c0,3.72-2.27,5.72-5.04,5.72s-4.88-2.24-4.88-5.53,2.13-5.7,5.03-5.7,4.9,2.27,4.9,5.51M43.21,114.15c0,2.34,1.26,4.41,3.48,4.41s3.48-2.05,3.48-4.51c0-2.17-1.13-4.43-3.46-4.43s-3.5,2.16-3.5,4.53Z"/><polygon class="cls-1" points="60.53 109.87 57.23 109.87 57.23 108.67 65.27 108.67 65.27 109.87 61.95 109.87 61.95 119.53 60.53 119.53 60.53 109.87"/><polygon class="cls-1" points="77.48 114.44 73.28 114.44 73.28 118.36 77.98 118.36 77.98 119.53 71.86 119.53 71.86 108.67 77.74 108.67 77.74 109.85 73.28 109.85 73.28 113.28 77.48 113.28 77.48 114.44"/><path class="cls-1" d="M92.77,119.19c-.5.26-1.55.51-2.87.51-3.06,0-5.35-1.93-5.35-5.51s2.3-5.7,5.67-5.7c1.34,0,2.21.29,2.58.48l-.36,1.14c-.51-.26-1.27-.45-2.18-.45-2.54,0-4.24,1.63-4.24,4.48,0,2.67,1.53,4.37,4.16,4.37.87,0,1.74-.18,2.3-.45l.27,1.13Z"/><path class="cls-1" d="M35.54,119.19c-.5.26-1.55.51-2.87.51-3.06,0-5.35-1.93-5.35-5.51s2.3-5.7,5.67-5.7c1.34,0,2.21.29,2.58.48l-.35,1.14c-.52-.26-1.27-.45-2.18-.45-2.54,0-4.24,1.63-4.24,4.48,0,2.67,1.53,4.37,4.16,4.37.87,0,1.74-.18,2.3-.45l.27,1.13Z"/><polygon class="cls-1" points="3.3 109.87 0 109.87 0 108.67 8.04 108.67 8.04 109.87 4.72 109.87 4.72 119.53 3.3 119.53 3.3 109.87"/><polygon class="cls-1" points="20.25 114.44 16.05 114.44 16.05 118.36 20.75 118.36 20.75 119.53 14.63 119.53 14.63 108.67 20.51 108.67 20.51 109.85 16.05 109.85 16.05 113.28 20.25 113.28 20.25 114.44"/><path class="cls-1" d="M21.65,125.96c.33-2.05,1.63-3.2,3.36-3.2,1.86,0,3.14,1.22,3.14,3.3,0,.27-.02.64-.08,1l-.21,1.25c-.35,2.03-1.49,3.22-3.44,3.22-1.74,0-3.06-1.17-3.06-3.2,0-.35.02-.75.07-1.13l.21-1.25ZM22.84,127.29c-.05.29-.08.56-.08.89,0,1.21.66,2.01,1.81,2.01,1.02,0,1.7-.72,1.95-2.22l.19-1.12c.04-.27.05-.64.05-.78,0-1.18-.66-1.99-1.78-1.99-.95,0-1.69.62-1.95,2.14l-.18,1.06Z"/><path class="cls-1" d="M30.52,130.11h-.07l-.56,3.45h-1.35l1.4-8.73h1.35l-.19,1.11h.08c.18-.49.65-1.21,1.7-1.21,1.22,0,2.04.93,2.04,2.43,0,.24,0,.55-.06.85l-.16.93c-.23,1.52-1.1,2.53-2.48,2.53-.94,0-1.6-.68-1.72-1.36ZM31.96,130.22c.79,0,1.31-.66,1.46-1.55l.12-.75c.02-.15.03-.4.03-.55,0-.87-.48-1.42-1.26-1.42s-1.31.66-1.47,1.65l-.11.74c-.02.14-.03.29-.03.35,0,.98.62,1.53,1.25,1.53Z"/><path class="cls-1" d="M37.47,123.25h1.3l-.27,1.69h1.27l-.18,1.16h-1.26l-.45,2.79c-.04.28-.09.55-.09.72,0,.4.18.63.7.63.23,0,.5-.03.64-.06l-.19,1.12c-.12.03-.46.09-.87.09-1.17,0-1.67-.48-1.67-1.33,0-.18.02-.43.07-.72l.53-3.24h-.88l.19-1.16h.89l.28-1.69Z"/><path class="cls-1" d="M41.37,124.83h1.27l-.18,1.08h.08c.2-.61.76-1.18,1.62-1.18.25,0,.48.07.57.1l-.25,1.35c-.14-.07-.41-.12-.62-.12-1,0-1.48.8-1.64,1.81l-.57,3.51h-1.34l1.05-6.54Z"/><path class="cls-1" d="M45.3,127.24c.25-1.53,1.31-2.53,2.75-2.53,1.52,0,2.63.99,2.63,2.73,0,.22-.02.51-.06.79l-.12.7c-.27,1.53-1.2,2.55-2.81,2.55-1.43,0-2.56-.94-2.56-2.64,0-.3.01-.6.06-.89l.11-.7ZM46.53,128.16c-.03.19-.06.38-.06.62,0,.86.46,1.49,1.29,1.49.78,0,1.25-.64,1.4-1.63l.11-.72c.03-.17.03-.45.03-.56,0-.83-.47-1.45-1.27-1.45-.73,0-1.25.56-1.4,1.58l-.11.68Z"/><path class="cls-1" d="M52.65,124.83h1.32l-.18,1.03h.08c.31-.67.87-1.13,1.75-1.13,1.23,0,1.82.91,1.82,2.01,0,.38-.07.8-.12,1.15l-.57,3.49h-1.34l.57-3.57c.03-.18.07-.48.07-.72,0-.67-.31-1.16-1-1.16-.86,0-1.35.72-1.51,1.71l-.61,3.73h-1.35l1.05-6.54Z"/><path class="cls-1" d="M59.65,124.83h1.35l-1.06,6.54h-1.35l1.06-6.54ZM60.57,122.02c.53,0,.86.36.86.85,0,.52-.37.88-.9.88s-.85-.36-.85-.85c0-.53.38-.89.89-.89Z"/><path class="cls-1" d="M62.01,128.01l.13-.8c.26-1.69,1.35-2.5,2.71-2.5s2.39.9,2.39,2.19c0,.06,0,.12-.01.15h-1.25s0-.06,0-.08c0-.48-.39-1.05-1.15-1.05-.7,0-1.25.53-1.42,1.52l-.11.69c-.04.25-.06.45-.06.61,0,.93.4,1.51,1.25,1.51.63,0,1.02-.33,1.12-.75h1.3c-.18,1.3-1.22,1.99-2.49,1.99-1.52,0-2.49-.99-2.49-2.58,0-.25.03-.59.08-.9Z"/><path class="cls-1" d="M70.84,124.7c1.45,0,2.3.88,2.3,1.84,0,.03,0,.15,0,.16h-1.19v-.07c0-.38-.37-.86-1.09-.86-.65,0-1,.36-1,.79,0,.59.63.73,1.31.97.89.31,1.62.75,1.62,1.87,0,1.37-1.06,2.09-2.47,2.09s-2.44-.77-2.44-1.95c0-.03,0-.1,0-.13h1.22s0,.08,0,.12c.07.47.54.86,1.26.86s1.09-.35,1.09-.85c0-.56-.52-.71-1.17-.93-.67-.23-1.73-.64-1.73-1.89,0-1.17.79-2,2.28-2Z"/></svg>